<svg width="1440" height="900" viewBox="0 0 1440 900" fill="none" xmlns="http://www.w3.org/2000/svg">
<g clip-path="url(#clip0_852:166292)">
<path d="M1167 -97.5288C1164.84 -99.8526 1161.82 -98.6042 1159.25 -99.2593C1146.05 -102.609 1132.55 -104.376 1119.07 -106.07C1107.15 -107.578 1095.22 -108.999 1083.25 -110.136C1068.82 -111.508 1054.38 -112.905 1039.94 -113.399C1017.84 -114.153 995.736 -113.968 973.776 -110C957.924 -107.145 942.431 -103.449 927.408 -97.5784C907.599 -89.8287 888.743 -80.1755 869.862 -70.4605C849.547 -60.0039 828.366 -51.2158 808.187 -40.5121C777.646 -24.3081 749.702 -3.80277 720.385 14.453C697.089 28.9512 675.599 46.0823 654.233 63.238C628.465 83.9287 600.162 100.652 571.921 117.511C552.496 129.105 532.428 139.536 511.333 147.768C490.523 155.889 468.836 160.919 447.098 165.913C424.582 171.079 401.843 174.861 379.03 177.89C357.305 180.782 335.667 183.934 314.808 190.62C297.311 196.232 280.891 204.105 267.03 216.898C256.421 226.687 248.013 238.095 240.038 249.85C226.993 269.07 211.29 285.607 193.015 299.908C175.209 313.838 154.708 322.65 134.183 331.228C106.832 342.661 79.6419 354.391 53.9109 369.124C23.1597 386.725 2.31262 412.878 -10.4107 445.694C-18.8435 467.436 -22.5406 490.388 -26.9424 513.081C-30.9239 533.648 -36.5993 553.461 -46.961 571.717C-50.8435 578.552 -57.3721 588.428 -66.5715 590.294L-416 592L-416 -301L1165.64 -301L1167 -97.5288Z" fill="#F5F5F5"/>
<path d="M1362.86 582.946C1388.38 574.76 1380.44 528.066 1397.3 536.729C1382.41 555.923 1402.98 588.015 1371.04 608.459C1390.24 623.334 1407.95 598.663 1423.55 602.312C1457.27 559.773 1431.49 511.692 1449.89 500.586C1444.01 528.78 1463.16 574.413 1438.95 600.748C1464.23 613.743 1466.42 585.889 1490 584.375C1532.39 584.851 1483.5 464.062 1491.46 457.288C1496.41 487.213 1524.69 516.976 1515.53 576.188C1536.54 543.843 1581.49 549.475 1592.59 509.265C1598.24 475.307 1527.6 428.672 1543 398.552C1551.5 436.905 1601.75 450.053 1601.26 492.415C1635.46 467.379 1635.95 425.017 1661.47 416.83C1626.76 398.349 1653.77 348.955 1594.53 339.816C1625.87 298.181 1664.87 120.293 1622.73 98.6354C1614.3 94.3039 1608.02 91.1829 1608.02 91.1829C1636.68 294.15 1511.82 415.445 1407.38 492.483C1470.68 432.015 1531.31 338.427 1552.64 296.977C1553.12 254.615 1502.07 270.988 1485.7 219.963C1451.99 202.637 1438.74 249.093 1400.45 261.373C1459.69 270.512 1449.68 333.443 1484.24 347.05C1445.17 346.569 1445.59 280.31 1391.78 278.223C1376.94 300.638 1340.73 294.596 1323.39 328.296C1391.3 320.585 1405.45 383.999 1441.38 388.936C1377.8 388.222 1392.51 333.14 1314.72 345.145C1322.9 370.658 1267.44 394.778 1288.22 438.057C1324.8 404.87 1374.27 445.421 1415.51 438.174C1384.58 463.077 1339.27 421.683 1305.08 446.72C1283.64 467.663 1289.55 477.305 1283.4 488.844C1310.61 470.55 1356.15 480.214 1372.5 481.372C1336.82 487.326 1304.59 489.082 1291.58 514.357C1278.58 539.632 1295.19 569.476 1287.54 608.156C1316.14 590.895 1337.33 591.133 1362.86 582.946Z" fill="#065C56"/>
<circle cx="1365" cy="107" r="23" fill="#296F8E"/>
<circle cx="1413" cy="185" r="11" fill="#45835F"/>
<circle cx="1349" cy="221" r="7" fill="#F3B761"/>
<circle cx="160" cy="421" r="24" fill="#F5F5F5"/>
<circle cx="214" cy="465" r="8" fill="#F5F5F5"/>
</g>
<defs>
<clipPath id="clip0_852:166292">
<rect width="1440" height="900" fill="white"/>
</clipPath>
</defs>
</svg>
